<?xml version="1.0" standalone="no"?>
<!DOCTYPE svg PUBLIC "-//W3C//DTD SVG 20010904//EN"
 "http://www.w3.org/TR/2001/REC-SVG-20010904/DTD/svg10.dtd">
<svg version="1.0" xmlns="http://www.w3.org/2000/svg"
 width="200.000000pt" height="200.000000pt" viewBox="0 0 200.000000 200.000000"
 preserveAspectRatio="xMidYMid meet">

<g transform="translate(0.000000,200.000000) scale(0.100000,-0.100000)"
fill="#2563EB" stroke="none">
<path d="M844 1956 c-160 -31 -256 -69 -379 -151 -467 -311 -573 -943 -232
-1390 118 -155 328 -295 522 -347 117 -32 374 -31 490 0 647 177 926 918 556
1477 -84 127 -243 262 -397 335 -152 73 -400 107 -560 76z m463 -495 c103
-175 141 -340 112 -483 -8 -39 -19 -61 -42 -82 -38 -34 -20 -26 45 21 l48 35
26 -32 c83 -99 103 -124 98 -131 -2 -5 -43 -34 -89 -65 -89 -58 -205 -112
-290 -133 -61 -16 -230 -16 -268 -2 -45 17 -50 13 -23 -22 l25 -33 -74 -62
c-41 -34 -78 -62 -82 -62 -24 1 -140 192 -177 292 -58 155 -58 356 2 407 35
30 8 16 -39 -21 -20 -15 -41 -28 -47 -28 -5 0 -37 33 -71 74 l-61 74 34 29
c99 81 274 163 392 184 80 14 213 6 256 -15 28 -14 29 -14 17 2 -7 9 -21 27
-32 38 -18 21 -18 22 60 88 l78 67 32 -38 c18 -21 49 -67 70 -102z"/>
<path d="M1170 1275 c0 -5 5 -17 10 -25 5 -8 10 -10 10 -5 0 6 -5 17 -10 25
-5 8 -10 11 -10 5z"/>
<path d="M918 1223 c7 -3 16 -2 19 1 4 3 -2 6 -13 5 -11 0 -14 -3 -6 -6z"/>
<path d="M998 1213 c7 -3 16 -2 19 1 4 3 -2 6 -13 5 -11 0 -14 -3 -6 -6z"/>
<path d="M1034 1201 c3 -4 -14 -8 -38 -8 -73 -2 -137 -44 -185 -123 -20 -34
-30 -70 -11 -40 7 11 10 4 10 -27 0 -23 4 -53 10 -67 14 -37 79 -105 121 -127
40 -20 65 -26 39 -9 -11 7 -6 10 20 10 46 1 108 29 148 70 34 33 67 88 59 97
-3 2 -1 18 4 35 12 42 -30 132 -73 154 -43 22 -110 45 -104 35z"/>
<path d="M1201 1184 c0 -11 3 -14 6 -6 3 7 2 16 -1 19 -3 4 -6 -2 -5 -13z"/>
<path d="M1212 1140 c0 -14 2 -19 5 -12 2 6 2 18 0 25 -3 6 -5 1 -5 -13z"/>
<path d="M782 990 c0 -14 2 -19 5 -12 2 6 2 18 0 25 -3 6 -5 1 -5 -13z"/>
<path d="M781 864 c0 -11 3 -14 6 -6 3 7 2 16 -1 19 -3 4 -6 -2 -5 -13z"/>
<path d="M1314 854 c-18 -14 -18 -15 4 -4 12 6 22 13 22 15 0 8 -5 6 -26 -11z"/>
<path d="M1235 819 c-22 -10 -29 -16 -15 -13 28 7 80 33 65 33 -5 0 -28 -9
-50 -20z"/>
<path d="M791 820 c0 -8 4 -22 9 -30 12 -18 12 -2 0 25 -6 13 -9 15 -9 5z"/>
<path d="M1158 793 c7 -3 16 -2 19 1 4 3 -2 6 -13 5 -11 0 -14 -3 -6 -6z"/>
<path d="M1037 783 c18 -2 50 -2 70 0 21 2 7 4 -32 4 -38 0 -55 -2 -38 -4z"/>
</g>
</svg>
